<?xml version="1.0" encoding="UTF-8"?>
<svg version="1.1" xmlns="http://www.w3.org/2000/svg" width="192" height="192">
<path d="M0 0 C1.15494965 -0.00852997 2.30989929 -0.01705994 3.49984741 -0.02584839 C4.75296722 -0.02494202 6.00608704 -0.02403564 7.29718018 -0.02310181 C8.64143241 -0.02909178 9.98568121 -0.0358984 11.32992554 -0.04345703 C14.97063995 -0.06107904 18.61126026 -0.06581087 22.25201321 -0.0670886 C24.53060056 -0.0685132 26.80916422 -0.07278868 29.08774567 -0.07808304 C37.04852305 -0.09657248 45.00923359 -0.10475523 52.97003174 -0.10317993 C60.37160508 -0.10197961 67.77288631 -0.12306301 75.17438579 -0.15466726 C81.54405095 -0.18088895 87.91362107 -0.19154473 94.28333974 -0.19026911 C98.08093245 -0.1897611 101.87826555 -0.19535427 105.67580414 -0.21662521 C109.25137632 -0.23610686 112.82644393 -0.23606529 116.40203476 -0.22159195 C118.32522805 -0.2185313 120.24842193 -0.23511165 122.17153931 -0.25247192 C133.81290922 -0.16873263 141.49644903 2.854967 149.90753174 10.89633179 C155.88082951 17.33645923 159.34426553 24.24433766 159.37417603 33.16067505 C159.38697098 34.89309952 159.38697098 34.89309952 159.40002441 36.66052246 C159.39866486 38.54020218 159.39866486 38.54020218 159.39727783 40.45785522 C159.4032678 41.80210746 159.41007443 43.14635626 159.41763306 44.49060059 C159.43525506 48.131315 159.43998689 51.77193531 159.44126463 55.41268826 C159.44268922 57.69127561 159.4469647 59.96983927 159.45225906 62.24842072 C159.4707485 70.2091981 159.47893126 78.16990864 159.47735596 86.13070679 C159.47615564 93.53228013 159.49723903 100.93356136 159.52884328 108.33506083 C159.55506498 114.704726 159.56572076 121.07429612 159.56444514 127.44401479 C159.56393713 131.2416075 159.5695303 135.0389406 159.59080124 138.83647919 C159.61028288 142.41205136 159.61024131 145.98711898 159.59576797 149.56270981 C159.59270733 151.4859031 159.60928767 153.40909698 159.62664795 155.33221436 C159.54290866 166.97358427 156.51920902 174.65712408 148.47784424 183.06820679 C142.0377168 189.04150456 135.12983837 192.50494058 126.21350098 192.53485107 C124.48107651 192.54764603 124.48107651 192.54764603 122.71365356 192.56069946 C121.46053375 192.55979309 120.20741394 192.55888672 118.9163208 192.55795288 C117.57206857 192.56394285 116.22781977 192.57074948 114.88357544 192.57830811 C111.24286103 192.59593011 107.60224071 192.60066194 103.96148777 192.60193968 C101.68290042 192.60336427 99.40433676 192.60763975 97.12575531 192.61293411 C89.16497792 192.63142355 81.20426738 192.6396063 73.24346924 192.63803101 C65.84189589 192.63683069 58.44061466 192.65791408 51.03911519 192.68951833 C44.66945003 192.71574003 38.29987991 192.7263958 31.93016124 192.72512019 C28.13256852 192.72461217 24.33523543 192.73020534 20.53769684 192.75147629 C16.96212466 192.77095793 13.38705705 192.77091636 9.81146622 192.75644302 C7.88827292 192.75338238 5.96507904 192.76996272 4.04196167 192.787323 C-7.59940825 192.70358371 -15.28294806 189.67988407 -23.69403076 181.63851929 C-29.66732853 175.19839185 -33.13076456 168.29051341 -33.16067505 159.37417603 C-33.16920502 158.21922638 -33.17773499 157.06427673 -33.18652344 155.87432861 C-33.18561707 154.6212088 -33.18471069 153.36808899 -33.18377686 152.07699585 C-33.18976683 150.73274362 -33.19657345 149.38849481 -33.20413208 148.04425049 C-33.22175409 144.40353607 -33.22648592 140.76291576 -33.22776365 137.12216282 C-33.22918825 134.84357547 -33.23346373 132.56501181 -33.23875809 130.28643036 C-33.25724753 122.32565297 -33.26543028 114.36494243 -33.26385498 106.40414429 C-33.26265466 99.00257094 -33.28373806 91.60128971 -33.31534231 84.19979024 C-33.341564 77.83012508 -33.35221978 71.46055496 -33.35094416 65.09083629 C-33.35043615 61.29324357 -33.35602932 57.49591048 -33.37730026 53.69837189 C-33.39678191 50.12279971 -33.39674034 46.5477321 -33.382267 42.97214127 C-33.37920635 41.04894797 -33.3957867 39.12575409 -33.41314697 37.20263672 C-33.32940768 25.5612668 -30.30570805 17.87772699 -22.26434326 9.46664429 C-15.82421582 3.49334652 -8.91633739 0.02991049 0 0 Z " fill="#E50914" transform="translate(32.89324951171875,-0.267425537109375)"/>
<path d="M0 0 C7.05375 -0.061875 14.1075 -0.12375 21.375 -0.1875 C23.58106934 -0.21481201 25.78713867 -0.24212402 28.06005859 -0.27026367 C29.83951269 -0.27903841 31.61897288 -0.28668 33.3984375 -0.29296875 C34.29731689 -0.30831665 35.19619629 -0.32366455 36.12231445 -0.33947754 C44.7239751 -0.3429732 53.31932279 1.25151031 60 7 C64.23996049 11.84727578 65.78284712 16.23617113 65.41796875 22.67578125 C64.30465576 28.86663384 59.78168221 32.43917282 55 36 C54.01 36.33 53.02 36.66 52 37 C52.73605469 37.3403125 53.47210938 37.680625 54.23046875 38.03125 C59.66286002 40.72950511 64.37434497 43.08284219 67.25 48.6015625 C69.12620241 54.60150145 69.33223296 60.86265958 66.85546875 66.6953125 C62.07461248 74.33963677 55.58517819 77.9033397 47 80 C43.27120163 80.37311034 39.58419581 80.35228923 35.83984375 80.29296875 C34.92497192 80.28994751 34.0101001 80.28692627 33.06750488 80.28381348 C29.69071977 80.26826516 26.31409705 80.22638265 22.9375 80.1875 C11.5834375 80.0946875 11.5834375 80.0946875 0 80 C0 53.6 0 27.2 0 0 Z " fill="#FEFAFA" transform="translate(67,44)"/>
<path d="M0 0 C3.5578125 -0.12375 3.5578125 -0.12375 7.1875 -0.25 C7.92508545 -0.28641602 8.6626709 -0.32283203 9.42260742 -0.36035156 C12.96408565 -0.41965518 14.89492143 -0.06467453 17.92578125 1.80078125 C20.77896183 4.82590492 21 6.88633531 21 11 C19.81388219 13.8092264 18.86522231 15.41164883 16.33984375 17.12890625 C11.27453589 19.01465525 5.29672587 18.09808752 0 18 C0 12.06 0 6.12 0 0 Z " fill="#E50E19" transform="translate(91,90)"/>
<path d="M0 0 C13.10893513 -0.4369645 13.10893513 -0.4369645 18 3 C19.44430855 5.88861709 19.37688506 7.79647701 19 11 C17.375 13.875 17.375 13.875 14 16 C9.25080919 16.42489929 4.78619334 16.22365389 0 16 C0 10.72 0 5.44 0 0 Z " fill="#E61520" transform="translate(90,60)"/>
</svg>
