<svg xmlns="http://www.w3.org/2000/svg" viewBox="0 0 64 64" shape-rendering="crispEdges" aria-hidden="true">
  <defs>
    <clipPath id="buddgyRound">
      <rect x="0" y="0" width="64" height="64" rx="10" ry="10"/>
    </clipPath>
  </defs>
  <g clip-path="url(#buddgyRound)">
    <rect x="0" y="0" width="64" height="64" fill="#7CC2E6"/>
    <g fill="#A8D6EE">
      <polygon points="32,32 0,0 16,0"/>
      <polygon points="32,32 16,0 32,0"/>
      <polygon points="32,32 32,0 48,0"/>
      <polygon points="32,32 48,0 64,0"/>
      <polygon points="32,32 64,0 64,16"/>
      <polygon points="32,32 64,16 64,32"/>
      <polygon points="32,32 64,32 64,48"/>
      <polygon points="32,32 64,48 64,64"/>
      <polygon points="32,32 64,64 48,64"/>
      <polygon points="32,32 48,64 32,64"/>
      <polygon points="32,32 32,64 16,64"/>
      <polygon points="32,32 16,64 0,64"/>
      <polygon points="32,32 0,64 0,48"/>
      <polygon points="32,32 0,48 0,32"/>
      <polygon points="32,32 0,32 0,16"/>
      <polygon points="32,32 0,16 0,0"/>
    </g>

    <rect x="14" y="6" width="36" height="4" fill="#9DB6C6"/>
    <rect x="12" y="10" width="40" height="4" fill="#BFD3DD"/>
    <rect x="10" y="14" width="44" height="6" fill="#CFDFE7"/>
    <rect x="10" y="14" width="44" height="2" fill="#DDE9EE"/>
    <rect x="10" y="20" width="44" height="2" fill="#9DB6C6"/>

    <rect x="28" y="10" width="2" height="8" fill="#D7263D"/>
    <rect x="30" y="10" width="6" height="2" fill="#D7263D"/>
    <rect x="34" y="12" width="2" height="2" fill="#D7263D"/>
    <rect x="30" y="14" width="6" height="2" fill="#D7263D"/>
    <rect x="34" y="16" width="2" height="2" fill="#D7263D"/>
    <rect x="30" y="18" width="6" height="2" fill="#D7263D"/>

    <rect x="8" y="22" width="48" height="10" fill="#1F2A36"/>
    <rect x="8" y="22" width="48" height="2" fill="#2D3B4A"/>
    <rect x="14" y="26" width="8" height="4" fill="#FFD23F"/>
    <rect x="14" y="26" width="8" height="1" fill="#FFE676"/>
    <rect x="42" y="26" width="8" height="4" fill="#FFD23F"/>
    <rect x="42" y="26" width="8" height="1" fill="#FFE676"/>

    <rect x="14" y="32" width="36" height="14" fill="#F4ECDB"/>
    <rect x="14" y="32" width="36" height="2" fill="#FFFAEC"/>
    <rect x="14" y="44" width="36" height="2" fill="#D8CDB7"/>
    <rect x="14" y="32" width="2" height="14" fill="#D8CDB7"/>
    <rect x="48" y="32" width="2" height="14" fill="#D8CDB7"/>

    <rect x="20" y="38" width="4" height="2" fill="#1F2A36"/>
    <rect x="40" y="38" width="4" height="2" fill="#1F2A36"/>
    <rect x="28" y="40" width="8" height="2" fill="#D7263D"/>
    <rect x="30" y="42" width="4" height="2" fill="#A81D2F"/>

    <rect x="6" y="46" width="52" height="14" fill="#1B2330"/>
    <rect x="6" y="46" width="52" height="2" fill="#2A3548"/>
    <rect x="26" y="56" width="12" height="4" fill="#FFD23F"/>
    <rect x="26" y="56" width="12" height="1" fill="#FFE676"/>
  </g>
</svg>
